<?xml version="1.0" encoding="UTF-8" standalone="no"?>
<!DOCTYPE svg PUBLIC "-//W3C//DTD SVG 1.1//EN" "http://www.w3.org/Graphics/SVG/1.1/DTD/svg11.dtd">
<svg width="100%" height="100%" viewBox="0 0 30 37" version="1.1" xmlns="http://www.w3.org/2000/svg" xmlns:xlink="http://www.w3.org/1999/xlink" xml:space="preserve" xmlns:serif="http://www.serif.com/" style="fill-rule:evenodd;clip-rule:evenodd;stroke-linejoin:round;stroke-miterlimit:2;">
    <g transform="matrix(1.07111,0,0,1.07111,-221.098,-88.2251)">
        <g>
            <g transform="matrix(0.000384664,1,-1,0.000384664,251.476,-40.0178)">
                <path d="M128.608,31.506L128.596,31.522L139.056,45.108L132.656,45.108L125.49,35.63L122.385,31.522L122.373,31.506L122.385,31.491L128.596,31.491L128.608,31.506Z" style="fill:rgb(157,106,255);fill-rule:nonzero;"/>
            </g>
            <g transform="matrix(6.12323e-17,-1,1,6.12323e-17,115.513,209.743)">
                <path d="M99.333,104.51L99.321,104.525L109.781,118.111L103.381,118.111L96.216,108.633L93.11,104.525L93.099,104.51L93.11,104.495L96.216,100.387L103.381,90.909L109.781,90.909L99.321,104.495L99.333,104.51Z" style="fill:rgb(49,53,58);fill-rule:nonzero;"/>
            </g>
            <g transform="matrix(-0.000384664,-1,1,-0.000384664,188.567,231.725)">
                <path d="M128.608,31.506L128.596,31.522L122.385,31.522L122.373,31.506L122.385,31.491L125.49,27.383L132.656,17.905L139.056,17.905L128.596,31.491L128.608,31.506Z" style="fill:rgb(109,34,255);fill-rule:nonzero;"/>
            </g>
            <g transform="matrix(0.000384664,1,-1,0.000384664,251.476,-40.0178)">
                <path d="M135.859,22.057L128.596,31.491L128.608,31.506L128.596,31.522L122.385,31.522L122.373,31.506L132.656,17.905L139.056,17.906L132.663,17.906L135.859,22.057Z" style="fill:rgb(109,34,255);"/>
            </g>
            <g transform="matrix(-0.000384664,-1,1,-0.000384664,188.567,231.725)">
                <path d="M135.859,40.956L132.663,45.108L132.656,45.108L122.385,31.522L122.373,31.506L122.385,31.491L128.596,31.491L128.608,31.506L128.596,31.522L135.859,40.956Z" style="fill:rgb(157,106,255);"/>
            </g>
            <g transform="matrix(-0.000384664,-1,1,-0.000384664,188.567,231.725)">
                <path d="M132.663,45.108L135.859,40.956L139.056,45.108L132.663,45.108Z" style="fill:rgb(136,75,255);"/>
            </g>
        </g>
    </g>
</svg>
