<?xml version="1.0" encoding="UTF-8" standalone="no"?>
<!DOCTYPE svg PUBLIC "-//W3C//DTD SVG 1.1//EN" "http://www.w3.org/Graphics/SVG/1.1/DTD/svg11.dtd">
<svg width="100%" height="100%" viewBox="0 0 80 30" version="1.1" xmlns="http://www.w3.org/2000/svg" xmlns:xlink="http://www.w3.org/1999/xlink" xml:space="preserve" xmlns:serif="http://www.serif.com/" style="fill-rule:evenodd;clip-rule:evenodd;stroke-linejoin:round;stroke-miterlimit:2;">
    <g transform="matrix(1,0,0,1,-66.0536,-62.2678)">
        <g transform="matrix(6.63817e-17,1.08409,-1.08409,6.63817e-17,198.83,-161.427)">
            <g transform="matrix(0.000384664,1,-1,0.000384664,251.476,-40.0178)">
                <path d="M128.608,31.506L128.596,31.522L139.056,45.108L132.656,45.108L125.49,35.63L122.385,31.522L122.373,31.506L122.385,31.491L128.596,31.491L128.608,31.506Z" style="fill:rgb(157,106,255);fill-rule:nonzero;"/>
            </g>
            <g transform="matrix(6.12323e-17,-1,1,6.12323e-17,115.513,209.743)">
                <path d="M99.333,104.51L99.321,104.525L109.781,118.111L103.381,118.111L96.216,108.633L93.11,104.525L93.099,104.51L93.11,104.495L96.216,100.387L103.381,90.909L109.781,90.909L99.321,104.495L99.333,104.51Z" style="fill:rgb(255,255,255);fill-rule:nonzero;"/>
            </g>
            <g transform="matrix(-0.000384664,-1,1,-0.000384664,188.567,231.725)">
                <path d="M128.608,31.506L128.596,31.522L122.385,31.522L122.373,31.506L122.385,31.491L125.49,27.383L132.656,17.905L139.056,17.905L128.596,31.491L128.608,31.506Z" style="fill:rgb(109,34,255);fill-rule:nonzero;"/>
            </g>
            <g transform="matrix(0.000384664,1,-1,0.000384664,251.476,-40.0178)">
                <path d="M135.859,22.057L128.596,31.491L128.608,31.506L128.596,31.522L122.385,31.522L122.373,31.506L132.656,17.905L139.056,17.906L132.663,17.906L135.859,22.057Z" style="fill:rgb(109,34,255);"/>
            </g>
            <g transform="matrix(-0.000384664,-1,1,-0.000384664,188.567,231.725)">
                <path d="M135.859,40.956L132.663,45.108L132.656,45.108L122.385,31.522L122.373,31.506L122.385,31.491L128.596,31.491L128.608,31.506L128.596,31.522L135.859,40.956Z" style="fill:rgb(157,106,255);"/>
            </g>
            <g transform="matrix(-0.000384664,-1,1,-0.000384664,188.567,231.725)">
                <path d="M132.663,45.108L135.859,40.956L139.056,45.108L132.663,45.108Z" style="fill:rgb(136,75,255);"/>
            </g>
        </g>
        <g transform="matrix(3.32947,0,0,3.32947,-629.278,-339.229)">
            <g transform="matrix(0.327655,0,0,0.325463,175.374,100.924)">
                <rect x="102.141" y="60.419" width="5.592" height="27.44" style="fill:rgb(255,255,255);"/>
            </g>
            <g transform="matrix(0.298746,0,0,0.298746,208.896,120.589)">
                <path d="M65.254,0.025L79.977,0.044L75.924,4.926L65.254,4.926L65.254,29.734L59.153,29.734L59.153,4.926L55.607,4.926C56.548,6.467 57.092,8.27 57.094,10.19C57.088,14.615 54.206,18.555 49.991,19.901L58.208,29.734L50.753,29.734L41.641,19.356L44.653,15.311L46.907,15.311C49.716,15.311 52.028,12.999 52.028,10.19C52.028,7.382 49.716,5.07 46.907,5.07L38.095,5.07L33.86,0.059L46.484,0.003L46.484,0L59.153,0.017L59.153,0L65.254,0L65.254,0.025Z" style="fill:rgb(255,255,255);fill-rule:nonzero;"/>
            </g>
        </g>
    </g>
</svg>
